<?xml version="1.0" encoding="UTF-8" standalone="no"?> <svg id="Layer_1" data-name="Layer 1" xmlns="http://www.w3.org/2000/svg" viewBox="0 0 64 64"><title>agricultural-farm-rural-cultivate-agriculture</title><path d="M21,39v3h2.22223l.33331,3H11.66394A4.66392,4.66392,0,0,0,7,49.66394V61h7V53h8v8h8V47.13062a3.33507,3.33507,0,0,0,.3313-1.11231L30.77777,42H33V39Z" style="fill:#bdd5ea"/><path d="M46.5,38.5C38.49188,38.5,32,42.7533,32,48H61C61,42.7533,54.50812,38.5,46.5,38.5Z" style="fill:#577399"/><path d="M33,28l2.46453.57506a3.61592,3.61592,0,0,1,2.51095,2.43676L39,34l-2.46453-.57506a3.61592,3.61592,0,0,1-2.51095-2.43676Z" style="fill:#489381"/><path d="M45,28l-2.46453.57506a3.61592,3.61592,0,0,0-2.51095,2.43676L39,34l2.46453-.57506a3.61592,3.61592,0,0,0,2.51095-2.43676Z" style="fill:#489381"/><path d="M49,28l2.46453.57506a3.61592,3.61592,0,0,1,2.51095,2.43676L55,34l-2.46453-.57506a3.61592,3.61592,0,0,1-2.51095-2.43676Z" style="fill:#489381"/><path d="M61,28l-2.46453.57506a3.61592,3.61592,0,0,0-2.51095,2.43676L55,34l2.46453-.57506a3.61592,3.61592,0,0,0,2.51095-2.43676Z" style="fill:#489381"/><polygon points="17 19 16 16 12 16 11 19 8 36 20 36 17 19" style="fill:#ffdf80"/><rect x="12" y="32" width="4" height="4" style="fill:#bdd5ea"/><circle cx="13.82215" cy="14.0737" r="2.07367" style="fill:#bdd5ea"/><rect x="3.25589" y="18.52633" width="8.29469" height="4.14734" transform="translate(-12.40033 11.27334) rotate(-45.01405)" style="fill:#fe5f55"/><rect x="16.44942" y="5.32633" width="8.29469" height="4.14734" transform="translate(0.80235 16.73638) rotate(-45.01405)" style="fill:#fe5f55"/><rect x="5.32417" y="3.25805" width="4.14734" height="8.29469" transform="translate(-3.06963 7.39749) rotate(-44.98595)" style="fill:#fe5f55"/><rect x="18.52849" y="16.44726" width="4.14734" height="8.29469" transform="translate(-8.52835 20.5928) rotate(-44.98595)" style="fill:#fe5f55"/><circle cx="47" cy="11" r="3" style="fill:#fe5f55"/><path d="M34,39a.99974.99974,0,0,0-1-1H30V36H28v2H26V36H24v2H21a.99974.99974,0,0,0-1,1v3a.99974.99974,0,0,0,1,1h1.32715l.11127,1H11.66406a5.65321,5.65321,0,0,0-4.53521,2.28546C4.9444,46.93451,3.24,48.71912,2.07227,51.627l1.85546.7461A8.42739,8.42739,0,0,1,6.026,49.151c-.01532.16925-.026.33991-.026.51306V61a.99974.99974,0,0,0,1,1h7a.99974.99974,0,0,0,1-1V54h6v7a.99974.99974,0,0,0,1,1h8a.99974.99974,0,0,0,1-1V47.31854a4.31837,4.31837,0,0,0,.32471-1.18963L31.67285,43H33a.99974.99974,0,0,0,1-1ZM13,60H12V54h1Zm14,0V53H25v7H23V53a.99974.99974,0,0,0-1-1H11a.99974.99974,0,0,0-1,1v7H8V49.66406A3.668,3.668,0,0,1,11.66406,46H22.661l.01434.12891A4.32263,4.32263,0,0,0,29,49.496V60Zm5-19H30.77783a.99927.99927,0,0,0-.99365.88965L29.3374,45.9082a2.35182,2.35182,0,0,1-4.6748,0l-.44678-4.01855A.99927.99927,0,0,0,23.22217,41H22V40H32Z"/><path d="M62,53V51H58V47H56v4H52V47H50v4H46V47H44v4H40V47H38v4H34v2h4v3H34v2h4v4h2V58h4v4h2V58h4v4h2V58h4v4h2V58h4V56H58V53ZM40,56V53h4v3Zm6,0V53h4v3Zm10,0H52V53h4Z"/><path d="M33.07861,32.3125a4.59287,4.59287,0,0,0,3.23,3.08594L38,35.79327v3.97516a18.29083,18.29083,0,0,0-2.47266,1.40345l1.1211,1.65624A16.60171,16.60171,0,0,1,46,40a16.16015,16.16015,0,0,1,14.13086,7.959l1.73926-.98828A17.4,17.4,0,0,0,56,40.86859V35.79327l1.69141-.39483a4.59287,4.59287,0,0,0,3.23-3.08594l1.02441-2.98828a.9996.9996,0,0,0-1.17334-1.29785l-2.46387.57519a4.59287,4.59287,0,0,0-3.23,3.08594L55,31.91681l-.07861-.22931a4.59287,4.59287,0,0,0-3.23-3.08594l-2.46387-.57519a.9996.9996,0,0,0-1.17334,1.29785l1.02441,2.98828a4.59287,4.59287,0,0,0,3.23,3.08594L54,35.79327v3.98011a18.91765,18.91765,0,0,0-14-.79566V35.79327l1.69141-.39483a4.59287,4.59287,0,0,0,3.23-3.08594l1.02441-2.98828a.9996.9996,0,0,0-1.17334-1.29785l-2.46387.57519a4.59287,4.59287,0,0,0-3.23,3.08594L39,31.91681l-.07861-.22931a4.59287,4.59287,0,0,0-3.23-3.08594l-2.46387-.57519a.9996.9996,0,0,0-1.17334,1.29785Zm23.8916.02344a2.61666,2.61666,0,0,1,1.793-1.78711l.70508-.16406-.43847,1.27929a2.61666,2.61666,0,0,1-1.793,1.78711l-.70508.16406ZM52.7627,33.45117a2.61693,2.61693,0,0,1-1.79249-1.78711l-.43847-1.27929.70556.16406a2.61693,2.61693,0,0,1,1.79249,1.78711l.43847,1.27929ZM40.97021,32.33594a2.61666,2.61666,0,0,1,1.793-1.78711l.70508-.16406-.43847,1.27929a2.61666,2.61666,0,0,1-1.793,1.78711l-.70508.16406ZM35.2373,30.54883a2.61693,2.61693,0,0,1,1.79249,1.78711l.43847,1.27929-.70556-.16406a2.61693,2.61693,0,0,1-1.79249-1.78711l-.43847-1.27929Z"/><path d="M9.57666,15.49316a1.00024,1.00024,0,0,0-1.41455,0L2.29834,21.35938a1.00007,1.00007,0,0,0-.00049,1.41406L5.23,25.707a1.00022,1.00022,0,0,0,1.41455,0L8.80005,23.5506,7.01025,35.85645A1,1,0,0,0,8,37H20a1,1,0,0,0,.98975-1.14355l-1.79169-12.319,2.16278,2.16369a.99963.99963,0,0,0,1.41406,0L25.707,22.76855a1.00007,1.00007,0,0,0,.00049-1.41406L19.84375,15.4873a1.00084,1.00084,0,0,0-1.415,0l-.76349.76386-1.00464-1.00464a3.01988,3.01988,0,0,0-.04748-2.44293l1.05566-1.0517.75458.755a1.00024,1.00024,0,0,0,1.41455,0l5.86377-5.86622a1.00007,1.00007,0,0,0,.00049-1.41406L22.77,2.293a1.00022,1.00022,0,0,0-1.41455,0L15.4917,8.15918a1.00007,1.00007,0,0,0-.00049,1.41406l.76062.761-1.023,1.02258a2.992,2.992,0,0,0-2.57965-.1217l-.9007-.9007.755-.75531A1.00009,1.00009,0,0,0,12.50293,8.165L6.63916,2.29883a.99963.99963,0,0,0-1.41406,0L2.293,5.23145a1.00007,1.00007,0,0,0-.00049,1.41406L8.15625,12.5127a1.00084,1.00084,0,0,0,1.415,0l.76349-.76386.82275.82275a2.95872,2.95872,0,0,0-.05182,2.90851l-.7713.77118ZM22.0625,4.41406l1.51807,1.51953-4.44971,4.45215L17.61279,8.86621ZM4.41406,5.93848,5.93213,4.41992l4.44971,4.45215L8.86377,10.39062ZM5.9375,23.58594,4.41943,22.06641l4.44971-4.45215,1.51807,1.51953ZM13,35V33h2v2ZM23.58594,22.06152l-1.51807,1.51856-4.44971-4.45215,1.51807-1.51855Zm-8.69043-7.98828A1.07325,1.07325,0,1,1,13.82227,13,1.07465,1.07465,0,0,1,14.89551,14.07324Zm-2.34516,2.79059a2.97749,2.97749,0,0,0,2.77417-.12524l.927.927-.75495.75531a1.00009,1.00009,0,0,0,.00049,1.41406l1.33557,1.33612L18.84424,35H17V32a.99974.99974,0,0,0-1-1H12a.99974.99974,0,0,0-1,1v3H9.15576l2.00971-13.8158,1.34283-1.34338a1.00007,1.00007,0,0,0,.00049-1.41406l-.76044-.76081Z"/><path d="M47,15a4,4,0,1,0-4-4A4.00427,4.00427,0,0,0,47,15Zm0-6a2,2,0,1,1-2,2A2.00229,2.00229,0,0,1,47,9Z"/><rect x="46" y="2" width="2" height="3"/><rect x="46" y="17" width="2" height="3"/><rect x="53" y="10" width="3" height="2"/><rect x="38" y="10" width="3" height="2"/><rect x="50.80304" y="4.69688" width="3.00037" height="1.99979" transform="translate(11.29103 38.65251) rotate(-45)"/><rect x="40.19659" y="15.30333" width="3.00037" height="1.99979" transform="translate(0.68458 34.25918) rotate(-45)"/><rect x="51.30333" y="14.80304" width="1.99979" height="3.00037" transform="translate(3.78528 41.7479) rotate(-44.98681)"/><rect x="40.69688" y="4.19659" width="1.99979" height="3.00037" transform="translate(8.17862 31.14491) rotate(-44.98681)"/></svg>