<?xml version="1.0" encoding="UTF-8" standalone="no"?> <svg width="512" height="512" viewBox="0 0 512 512" fill="none" xmlns="http://www.w3.org/2000/svg">
<path d="M255.433 206.407C242.708 206.407 231.391 195.633 223.565 176.07C216.665 158.827 212.87 136.07 212.87 112C212.87 87.93 216.67 65.173 223.565 47.93C231.391 28.367 242.708 17.593 255.433 17.593C268.158 17.593 279.475 28.367 287.3 47.93C294.2 65.172 298 87.93 298 112C298 136.07 294.2 158.828 287.3 176.07C279.475 195.633 268.158 206.407 255.433 206.407ZM255.433 33.593C244.603 33.593 228.87 64.137 228.87 112C228.87 159.863 244.603 190.407 255.433 190.407C266.263 190.407 282 159.863 282 112C282 64.137 266.264 33.593 255.433 33.593V33.593Z" fill="#FAA6B2"/>
<path d="M187.256 399.805C184.034 391.885 179.252 384.693 173.196 378.657C167.139 372.621 159.931 367.864 151.999 364.669V295.983H103.999V364.658C103.94 364.682 103.88 364.702 103.821 364.726C94.5804 368.488 86.3487 374.361 79.7854 381.875C73.2221 389.39 68.5096 398.337 66.0254 408H189.96C189.243 405.211 188.34 402.473 187.256 399.805V399.805Z" fill="#E6E5E0"/>
<path d="M189.961 408H66.0257C63.5836 417.457 63.3387 427.348 65.3096 436.915C67.2806 446.482 71.4151 455.47 77.3964 463.192C83.3778 470.914 91.0473 477.165 99.8174 481.465C108.588 485.765 118.226 488.001 127.993 488.001C137.761 488.001 147.399 485.765 156.169 481.465C164.939 477.165 172.609 470.914 178.59 463.192C184.571 455.47 188.706 446.482 190.677 436.915C192.648 427.348 192.403 417.457 189.961 408V408Z" fill="#EC9DA8"/>
<path d="M425.373 320H320V416H448V377.831C448 366.204 451.441 354.838 457.891 345.164L464 336C458.927 330.927 452.905 326.904 446.278 324.158C439.65 321.413 432.547 320 425.373 320V320Z" fill="#E6E5E0"/>
<path d="M320 452C320 461.548 323.793 470.705 330.544 477.456C337.295 484.207 346.452 488 356 488H412C421.548 488 430.705 484.207 437.456 477.456C444.207 470.705 448 461.548 448 452V416H320V452Z" fill="#F7A014"/>
<path d="M448 440V452C448.004 453.337 447.927 454.673 447.77 456H424C421.878 456 419.843 455.157 418.343 453.657C416.843 452.157 416 450.122 416 448C416 445.878 416.843 443.843 418.343 442.343C419.843 440.843 421.878 440 424 440H448Z" fill="#F7A014"/>
<path d="M280 232H232C223.163 232 216 239.163 216 248C216 256.837 223.163 264 232 264H280C288.837 264 296 256.837 296 248C296 239.163 288.837 232 280 232Z" fill="#E6E5E0"/>
<path d="M152 263.983H104C95.1634 263.983 88 271.146 88 279.983C88 288.82 95.1634 295.983 104 295.983H152C160.837 295.983 168 288.82 168 279.983C168 271.146 160.837 263.983 152 263.983Z" fill="#E6E5E0"/>
<path d="M448 392H424C421.878 392 419.843 391.157 418.343 389.657C416.843 388.157 416 386.122 416 384C416 381.878 416.843 379.843 418.343 378.343C419.843 376.843 421.878 376 424 376H448V392Z" fill="#BBBAB6"/>
<path d="M448 440V452C448.004 453.337 447.927 454.673 447.77 456H424C421.878 456 419.843 455.157 418.343 453.657C416.843 452.157 416 450.122 416 448C416 445.878 416.843 443.843 418.343 442.343C419.843 440.843 421.878 440 424 440H448Z" fill="#D78E0C"/>
<path d="M448 424H424C421.878 424 419.843 423.157 418.343 421.657C416.843 420.157 416 418.122 416 416C416 413.878 416.843 411.843 418.343 410.343C419.843 408.843 421.878 408 424 408H448V424Z" fill="#BBBAB6"/>
<path d="M448 416V424H424C421.878 424 419.843 423.157 418.343 421.657C416.843 420.157 416 418.122 416 416H448Z" fill="#D78E0C"/>
<path d="M280 375.983V264H232V375.983L213.13 400H298.87L280 375.983Z" fill="#E6E5E0"/>
<path d="M317.153 423.27L298.869 400H213.129L194.845 423.27C174.224 449.515 192.92 487.983 226.298 487.983H285.698C319.078 487.983 337.774 449.515 317.153 423.27Z" fill="#6DC197"/>
<path d="M306.964 177.385C300.988 177.309 295.041 176.53 289.247 175.064C271.193 170.712 250.437 160.644 230.804 146.714C211.171 132.784 194.81 116.52 184.738 100.914C173.311 83.214 171.072 67.748 178.438 57.37C185.804 46.992 201.138 43.997 221.62 48.933C239.674 53.285 260.429 63.353 280.063 77.283C299.697 91.213 316.057 107.477 326.129 123.083C337.557 140.783 339.795 156.249 332.429 166.627C327.383 173.74 318.59 177.385 306.964 177.385ZM203.733 62.59C197.742 62.59 193.38 63.96 191.485 66.631C185.218 75.464 201.026 105.969 240.061 133.664C279.096 161.359 313.114 166.202 319.379 157.369C322.556 152.892 319.991 143.079 312.684 131.76C303.684 117.828 288.816 103.116 270.802 90.336C252.789 77.556 233.99 68.377 217.868 64.491C213.246 63.3122 208.503 62.6743 203.733 62.59V62.59Z" fill="#F7A014"/>
<path d="M203.9 177.385C192.272 177.385 183.482 173.741 178.435 166.627C171.072 156.249 173.311 140.785 184.735 123.083C194.807 107.483 211.166 91.216 230.801 77.283C250.434 63.353 271.19 53.283 289.244 48.933C309.729 44 325.067 47 332.43 57.373C339.793 67.746 337.555 83.215 326.13 100.917C316.058 116.517 299.698 132.784 280.064 146.717C260.43 160.65 239.675 170.717 221.621 175.067C215.825 176.531 209.878 177.309 203.9 177.385ZM240.061 90.336C201.026 118.036 185.218 148.536 191.485 157.369C194.662 161.846 204.77 162.669 217.868 159.509C233.99 155.623 252.789 146.444 270.802 133.664C288.815 120.884 303.689 106.172 312.684 92.24C319.991 80.921 322.556 71.108 319.379 66.631C313.114 57.798 279.098 62.641 240.061 90.336V90.336Z" fill="#5EBEF7"/>
<path d="M198.188 181.125C205.943 181.125 212.229 174.839 212.229 167.084C212.229 159.329 205.943 153.043 198.188 153.043C190.434 153.043 184.147 159.329 184.147 167.084C184.147 174.839 190.434 181.125 198.188 181.125Z" fill="#F7A014"/>
<path d="M359 370C363.971 370 368 365.971 368 361C368 356.029 363.971 352 359 352C354.029 352 350 356.029 350 361C350 365.971 354.029 370 359 370Z" fill="#BBBAB6"/>
<path d="M95 202C99.9706 202 104 197.971 104 193C104 188.029 99.9706 184 95 184C90.0294 184 86 188.029 86 193C86 197.971 90.0294 202 95 202Z" fill="#EC9DA8"/>
<path d="M385 392C389.971 392 394 387.971 394 383C394 378.029 389.971 374 385 374C380.029 374 376 378.029 376 383C376 387.971 380.029 392 385 392Z" fill="#BBBAB6"/>
<path d="M121 232C125.971 232 130 227.971 130 223C130 218.029 125.971 214 121 214C116.029 214 112 218.029 112 223C112 227.971 116.029 232 121 232Z" fill="#FAA6B2"/>
<path d="M351 282C355.971 282 360 277.971 360 273C360 268.029 355.971 264 351 264C346.029 264 342 268.029 342 273C342 277.971 346.029 282 351 282Z" fill="#EE9D0D"/>
<path d="M377 256C381.971 256 386 251.971 386 247C386 242.029 381.971 238 377 238C372.029 238 368 242.029 368 247C368 251.971 372.029 256 377 256Z" fill="#F7A014"/>
<path d="M329.959 94.719C337.714 94.719 344 88.4326 344 80.678C344 72.9233 337.714 66.637 329.959 66.637C322.204 66.637 315.918 72.9233 315.918 80.678C315.918 88.4326 322.204 94.719 329.959 94.719Z" fill="#529FFF"/>
<path d="M255.433 126.041C263.187 126.041 269.474 119.755 269.474 112C269.474 104.245 263.187 97.959 255.433 97.959C247.678 97.959 241.392 104.245 241.392 112C241.392 119.755 247.678 126.041 255.433 126.041Z" fill="#6DC197"/>
<path d="M192 232C184.764 231.99 177.745 229.533 172.082 225.028C166.42 220.523 162.448 214.235 160.813 207.187C154.97 205.827 149.625 202.858 145.384 198.616C141.142 194.375 138.173 189.03 136.813 183.187C129.765 181.552 123.477 177.58 118.972 171.918C114.467 166.255 112.01 159.236 112 152C112 149.878 112.843 147.843 114.343 146.343C115.843 144.843 117.878 144 120 144C122.122 144 124.157 144.843 125.657 146.343C127.157 147.843 128 149.878 128 152C128.005 156.242 129.692 160.309 132.692 163.308C135.691 166.308 139.758 167.995 144 168C146.122 168 148.157 168.843 149.657 170.343C151.157 171.843 152 173.878 152 176C152.005 180.242 153.692 184.309 156.692 187.308C159.691 190.308 163.758 191.995 168 192C170.122 192 172.157 192.843 173.657 194.343C175.157 195.843 176 197.878 176 200C176.005 204.242 177.692 208.309 180.692 211.308C183.691 214.308 187.758 215.995 192 216C194.122 216 196.157 216.843 197.657 218.343C199.157 219.843 200 221.878 200 224C200 226.122 199.157 228.157 197.657 229.657C196.157 231.157 194.122 232 192 232Z" fill="#CDCCC8"/>
<path d="M200 224C192.765 223.99 185.745 221.533 180.083 217.029C174.42 212.524 170.448 206.238 168.81 199.19C162.968 197.829 157.624 194.859 153.382 190.618C149.141 186.376 146.171 181.032 144.81 175.19C137.762 173.552 131.476 169.58 126.971 163.917C122.467 158.255 120.01 151.235 120 144C122.122 144 124.157 144.843 125.657 146.343C127.157 147.843 128 149.878 128 152C128.006 156.242 129.693 160.308 132.692 163.308C135.692 166.307 139.758 167.994 144 168C146.122 168 148.157 168.843 149.657 170.343C151.157 171.843 152 173.878 152 176C152.006 180.242 153.693 184.308 156.692 187.308C159.692 190.307 163.758 191.994 168 192C170.122 192 172.157 192.843 173.657 194.343C175.157 195.843 176 197.878 176 200C176.006 204.242 177.693 208.308 180.692 211.308C183.692 214.307 187.758 215.994 192 216C194.122 216 196.157 216.843 197.657 218.343C199.157 219.843 200 221.878 200 224Z" fill="#CDCCC8"/>
<path d="M200 224C192.765 223.99 185.745 221.533 180.083 217.029C174.42 212.524 170.448 206.238 168.81 199.19C162.968 197.829 157.624 194.859 153.382 190.618C149.141 186.376 146.171 181.032 144.81 175.19C137.762 173.552 131.476 169.58 126.971 163.917C122.467 158.255 120.01 151.235 120 144C122.122 144 124.157 144.843 125.657 146.343C127.157 147.843 128 149.878 128 152C128.006 156.242 129.693 160.308 132.692 163.308C135.692 166.307 139.758 167.994 144 168C146.122 168 148.157 168.843 149.657 170.343C151.157 171.843 152 173.878 152 176C152.006 180.242 153.693 184.308 156.692 187.308C159.692 190.307 163.758 191.994 168 192C170.122 192 172.157 192.843 173.657 194.343C175.157 195.843 176 197.878 176 200C176.006 204.242 177.693 208.308 180.692 211.308C183.692 214.307 187.758 215.994 192 216C194.122 216 196.157 216.843 197.657 218.343C199.157 219.843 200 221.878 200 224Z" fill="#DCDBD6"/>
<path d="M280 264H232V280H280V264Z" fill="#DCDBD6"/>
<path d="M152 296H104V312H152V296Z" fill="#DCDBD6"/>
<path d="M320 232C327.236 231.99 334.255 229.533 339.918 225.028C345.58 220.523 349.552 214.235 351.187 207.187C357.03 205.827 362.375 202.858 366.616 198.616C370.858 194.375 373.827 189.03 375.187 183.187C382.235 181.552 388.523 177.58 393.028 171.918C397.533 166.255 399.99 159.236 400 152C400 149.878 399.157 147.843 397.657 146.343C396.157 144.843 394.122 144 392 144C389.878 144 387.843 144.843 386.343 146.343C384.843 147.843 384 149.878 384 152C383.995 156.242 382.308 160.309 379.308 163.308C376.309 166.308 372.242 167.995 368 168C365.878 168 363.843 168.843 362.343 170.343C360.843 171.843 360 173.878 360 176C359.995 180.242 358.308 184.309 355.308 187.308C352.309 190.308 348.242 191.995 344 192C341.878 192 339.843 192.843 338.343 194.343C336.843 195.843 336 197.878 336 200C335.995 204.242 334.308 208.309 331.308 211.308C328.309 214.308 324.242 215.995 320 216C317.878 216 315.843 216.843 314.343 218.343C312.843 219.843 312 221.878 312 224C312 226.122 312.843 228.157 314.343 229.657C315.843 231.157 317.878 232 320 232Z" fill="#CDCCC8"/>
<path d="M312 224C319.235 223.99 326.255 221.533 331.917 217.029C337.58 212.524 341.552 206.238 343.19 199.19C349.032 197.829 354.376 194.859 358.618 190.618C362.859 186.376 365.829 181.032 367.19 175.19C374.238 173.552 380.524 169.58 385.029 163.917C389.533 158.255 391.99 151.235 392 144C389.878 144 387.843 144.843 386.343 146.343C384.843 147.843 384 149.878 384 152C383.994 156.242 382.307 160.308 379.308 163.308C376.308 166.307 372.242 167.994 368 168C365.878 168 363.843 168.843 362.343 170.343C360.843 171.843 360 173.878 360 176C359.994 180.242 358.307 184.308 355.308 187.308C352.308 190.307 348.242 191.994 344 192C341.878 192 339.843 192.843 338.343 194.343C336.843 195.843 336 197.878 336 200C335.994 204.242 334.307 208.308 331.308 211.308C328.308 214.307 324.242 215.994 320 216C317.878 216 315.843 216.843 314.343 218.343C312.843 219.843 312 221.878 312 224Z" fill="#CDCCC8"/>
<path d="M312 224C319.235 223.99 326.255 221.533 331.917 217.029C337.58 212.524 341.552 206.238 343.19 199.19C349.032 197.829 354.376 194.859 358.618 190.618C362.859 186.376 365.829 181.032 367.19 175.19C374.238 173.552 380.524 169.58 385.029 163.917C389.533 158.255 391.99 151.235 392 144C389.878 144 387.843 144.843 386.343 146.343C384.843 147.843 384 149.878 384 152C383.994 156.242 382.307 160.308 379.308 163.308C376.308 166.307 372.242 167.994 368 168C365.878 168 363.843 168.843 362.343 170.343C360.843 171.843 360 173.878 360 176C359.994 180.242 358.307 184.308 355.308 187.308C352.308 190.307 348.242 191.994 344 192C341.878 192 339.843 192.843 338.343 194.343C336.843 195.843 336 197.878 336 200C335.994 204.242 334.307 208.308 331.308 211.308C328.308 214.307 324.242 215.994 320 216C317.878 216 315.843 216.843 314.343 218.343C312.843 219.843 312 221.878 312 224Z" fill="#DCDBD6"/>
</svg>
