<?xml version="1.0" encoding="iso-8859-1"?>
<!-- Generator: Adobe Illustrator 16.0.0, SVG Export Plug-In . SVG Version: 6.00 Build 0)  -->
<!DOCTYPE svg PUBLIC "-//W3C//DTD SVG 1.1//EN" "http://www.w3.org/Graphics/SVG/1.1/DTD/svg11.dtd">
<svg version="1.1" xmlns="http://www.w3.org/2000/svg" xmlns:xlink="http://www.w3.org/1999/xlink" x="0px" y="0px" width="520px"
	 height="520px" viewBox="0 0 520 520" style="enable-background:new 0 0 520 520;" xml:space="preserve">
<g id="_x35_66_x2C__Archive_x2C__Files_x2C__History">
	<g>
		<path style="fill:#FFFFFF;" d="M325,450c8.28,0,15,6.72,15,15s-6.72,15-15,15s-15-6.72-15-15S316.72,450,325,450z"/>
		<path style="fill:#A7C7FC;" d="M460,50c11.05,0,20,8.95,20,20s-8.95,20-20,20s-20-8.95-20-20S448.95,50,460,50z"/>
		<path style="fill:#FFFFFF;" d="M396.63,61.22l89.45,369.32l-116.63,28.25L280,89.46L396.63,61.22z M418.35,405.79
			c10.73-2.61,17.33-13.42,14.73-24.15c-2.6-10.739-13.41-17.33-24.15-14.729c-10.729,2.6-17.33,13.41-14.729,24.14
			C396.8,401.79,407.61,408.38,418.35,405.79z"/>
		<path style="fill:#4C7FC7;" d="M460,140c5.52,0,10,4.48,10,10s-4.48,10-10,10s-10-4.48-10-10S454.48,140,460,140z"/>
		<path style="fill:#4C7FC7;" d="M320,30c5.52,0,10,4.48,10,10s-4.48,10-10,10s-10-4.48-10-10S314.48,30,320,30z"/>
		<path style="fill:#4C7FC7;" d="M310,380c5.52,0,10,4.48,10,10s-4.48,10-10,10s-10-4.48-10-10S304.48,380,310,380z"/>
		<path style="fill:#A7C7FC;" d="M160,310V70h120v19.46V450H160V310z M240,390c0-11.05-8.95-20-20-20s-20,8.95-20,20s8.95,20,20,20
			S240,401.05,240,390z"/>
		<path style="fill:#FFFFFF;" d="M40,310V70h120v240v140H40V310z M120,390c0-11.05-8.95-20-20-20s-20,8.95-20,20s8.95,20,20,20
			S120,401.05,120,390z"/>
		<path style="fill:#4C7FC7;" d="M150,470c5.52,0,10,4.48,10,10s-4.48,10-10,10s-10-4.48-10-10S144.48,470,150,470z"/>
		<path style="fill:#4C7FC7;" d="M130,30c5.52,0,10,4.48,10,10s-4.48,10-10,10s-10-4.48-10-10S124.48,30,130,30z"/>
		<path style="fill:#4C7FC7;" d="M160,460H40c-5.523,0-10-4.478-10-10V70c0-5.523,4.477-10,10-10h120c5.523,0,10,4.477,10,10
			s-4.477,10-10,10H50v360h110c5.523,0,10,4.478,10,10S165.523,460,160,460z"/>
		<path style="fill:#4C7FC7;" d="M100,420c-16.542,0-30-13.458-30-30s13.458-30,30-30s30,13.458,30,30S116.542,420,100,420z
			 M100,380c-5.514,0-10,4.486-10,10s4.486,10,10,10s10-4.486,10-10S105.514,380,100,380z"/>
		<path style="fill:#4C7FC7;" d="M120,220H80c-5.523,0-10-4.477-10-10s4.477-10,10-10h40c5.523,0,10,4.477,10,10
			S125.523,220,120,220z"/>
		<path style="fill:#4C7FC7;" d="M120,190H80c-5.523,0-10-4.477-10-10s4.477-10,10-10h40c5.523,0,10,4.477,10,10
			S125.523,190,120,190z"/>
		<path style="fill:#4C7FC7;" d="M120,160H80c-5.523,0-10-4.477-10-10s4.477-10,10-10h40c5.523,0,10,4.477,10,10
			S125.523,160,120,160z"/>
		<path style="fill:#4C7FC7;" d="M280,460H160c-5.523,0-10-4.478-10-10V70c0-5.523,4.477-10,10-10h120c5.522,0,10,4.477,10,10v380
			C290,455.522,285.522,460,280,460z M170,440h100V80H170V440z"/>
		<path style="fill:#4C7FC7;" d="M220,420c-16.542,0-30-13.458-30-30s13.458-30,30-30s30,13.458,30,30S236.542,420,220,420z
			 M220,380c-5.514,0-10,4.486-10,10s4.486,10,10,10s10-4.486,10-10S225.514,380,220,380z"/>
		<path style="fill:#4C7FC7;" d="M240,220h-40c-5.523,0-10-4.477-10-10s4.477-10,10-10h40c5.523,0,10,4.477,10,10
			S245.523,220,240,220z"/>
		<path style="fill:#4C7FC7;" d="M240,190h-40c-5.523,0-10-4.477-10-10s4.477-10,10-10h40c5.523,0,10,4.477,10,10
			S245.523,190,240,190z"/>
		<path style="fill:#4C7FC7;" d="M240,160h-40c-5.523,0-10-4.477-10-10s4.477-10,10-10h40c5.523,0,10,4.477,10,10
			S245.523,160,240,160z"/>
		<path style="fill:#4C7FC7;" d="M369.45,468.79c-1.822,0-3.626-0.498-5.208-1.463c-2.264-1.382-3.887-3.605-4.511-6.184
			l-89.45-369.33c-0.625-2.578-0.199-5.298,1.182-7.562c1.382-2.264,3.606-3.887,6.184-4.511l116.63-28.24
			c5.378-1.299,10.772,1.998,12.072,7.365l89.45,369.32c1.301,5.367-1.997,10.772-7.364,12.072l-116.63,28.25
			C371.027,468.697,370.237,468.79,369.45,468.79z M292.073,96.826l84.742,349.891l97.191-23.542L389.265,73.292L292.073,96.826z"/>
		<path style="fill:#4C7FC7;" d="M413.636,416.354c-13.896,0-25.884-9.438-29.155-22.951c-1.886-7.783-0.626-15.839,3.55-22.681
			c4.174-6.839,10.76-11.645,18.545-13.53c2.324-0.563,4.707-0.849,7.083-0.849c13.888,0,25.871,9.436,29.142,22.944
			c3.891,16.062-6.017,32.311-22.087,36.22C418.378,416.07,416.003,416.354,413.636,416.354z M413.658,376.343
			c-0.792,0-1.591,0.097-2.375,0.286c-2.594,0.629-4.789,2.231-6.181,4.512c-1.392,2.279-1.812,4.962-1.184,7.554
			c1.092,4.511,5.087,7.659,9.717,7.659c0.79,0,1.587-0.096,2.369-0.285c5.346-1.3,8.653-6.719,7.356-12.074
			C422.271,379.488,418.28,376.343,413.658,376.343z"/>
		<path style="fill:#4C7FC7;" d="M351.822,226.112c-4.511,0-8.604-3.073-9.712-7.65c-1.299-5.368,2-10.772,7.367-12.071l38.88-9.41
			c5.37-1.298,10.772,2,12.072,7.367c1.299,5.368-2,10.772-7.367,12.071l-38.88,9.41
			C353.393,226.021,352.601,226.112,351.822,226.112z"/>
		<path style="fill:#4C7FC7;" d="M344.762,196.962c-4.51,0-8.603-3.071-9.711-7.648c-1.301-5.367,1.996-10.773,7.364-12.073
			l38.881-9.42c5.368-1.303,10.773,1.997,12.073,7.364c1.301,5.367-1.996,10.773-7.364,12.073l-38.881,9.42
			C346.333,196.871,345.541,196.962,344.762,196.962z"/>
		<path style="fill:#4C7FC7;" d="M337.702,167.802c-4.51,0-8.602-3.071-9.711-7.647c-1.301-5.368,1.996-10.773,7.363-12.074
			l38.87-9.42c5.367-1.302,10.772,1.996,12.074,7.363c1.301,5.368-1.996,10.773-7.363,12.074l-38.87,9.42
			C339.274,167.71,338.481,167.802,337.702,167.802z"/>
		<path style="fill:#4C7FC7;" d="M120,130H80c-5.523,0-10-4.477-10-10s4.477-10,10-10h40c5.523,0,10,4.477,10,10
			S125.523,130,120,130z"/>
		<path style="fill:#4C7FC7;" d="M240,130h-40c-5.523,0-10-4.477-10-10s4.477-10,10-10h40c5.523,0,10,4.477,10,10
			S245.523,130,240,130z"/>
		<path style="fill:#4C7FC7;" d="M330.643,138.643c-4.51,0-8.604-3.072-9.711-7.649c-1.3-5.368,1.998-10.773,7.366-12.072
			l38.869-9.41c5.37-1.299,10.773,2,12.071,7.366c1.3,5.368-1.998,10.773-7.366,12.072l-38.869,9.41
			C332.213,138.551,331.421,138.643,330.643,138.643z"/>
		<path style="fill:#4C7FC7;" d="M120,250H80c-5.523,0-10-4.477-10-10s4.477-10,10-10h40c5.523,0,10,4.477,10,10
			S125.523,250,120,250z"/>
		<path style="fill:#4C7FC7;" d="M240,250h-40c-5.523,0-10-4.477-10-10s4.477-10,10-10h40c5.523,0,10,4.477,10,10
			S245.523,250,240,250z"/>
		<path style="fill:#4C7FC7;" d="M358.882,255.272c-4.51,0-8.603-3.071-9.711-7.648c-1.301-5.367,1.996-10.773,7.364-12.073
			l38.88-9.42c5.366-1.304,10.773,1.997,12.073,7.364c1.301,5.367-1.996,10.773-7.364,12.073l-38.88,9.42
			C360.453,255.181,359.661,255.272,358.882,255.272z"/>
		<path style="fill:#4C7FC7;" d="M220,320h-60c-5.523,0-10-4.478-10-10s4.477-10,10-10h60c5.523,0,10,4.478,10,10
			S225.523,320,220,320z"/>
		<path style="fill:#4C7FC7;" d="M70,320H40c-5.523,0-10-4.478-10-10s4.477-10,10-10h30c5.523,0,10,4.478,10,10S75.523,320,70,320z"
			/>
		<path style="fill:#4C7FC7;" d="M460,100c-16.542,0-30-13.458-30-30s13.458-30,30-30s30,13.458,30,30S476.542,100,460,100z M460,60
			c-5.514,0-10,4.486-10,10s4.486,10,10,10s10-4.486,10-10S465.514,60,460,60z"/>
		<path style="fill:#4C7FC7;" d="M325,490c-13.785,0-25-11.215-25-25s11.215-25,25-25s25,11.215,25,25S338.785,490,325,490z
			 M325,460c-2.757,0-5,2.243-5,5s2.243,5,5,5s5-2.243,5-5S327.757,460,325,460z"/>
		<path style="fill:#4C7FC7;" d="M250,300c5.52,0,10,4.48,10,10s-4.48,10-10,10s-10-4.48-10-10S244.48,300,250,300z"/>
		<path style="fill:#4C7FC7;" d="M100,300c5.52,0,10,4.48,10,10s-4.48,10-10,10s-10-4.48-10-10S94.48,300,100,300z"/>
	</g>
</g>
<g id="Layer_1">
</g>
</svg>
